<svg xmlns="http://www.w3.org/2000/svg" xmlns:xlink="http://www.w3.org/1999/xlink" width="100%" height="100%" fill-rule="evenodd" stroke-linecap="round" stroke-linejoin="round" stroke-miterlimit="1.5" clip-rule="evenodd" version="1.1" viewBox="0 0 495 387" xml:space="preserve"><rect id="Stack-Service-Task" width="800.007" height="587.952" x="-154" y="-115" fill="none"/><g id="Framing-Elements"><path id="Bottom-bounding-line" fill="#a7a7a7" stroke="#a7a7a7" stroke-width="1" d="M37.934,380.319l416.139,-1.263"/><g id="top---swarm"><path id="top-bound---swarm" fill="#a7a7a7" stroke="#a7a7a7" stroke-width="1" d="M37.892,11.032l416.138,-1.262"/><text id="title---swarm" x="25.024" y="42.929" fill="#167aab" font-family="'OpenSans-Regular', 'Open Sans', sans-serif" font-size="30">Swarm: Stacks, Services &amp; T<tspan x="405.928 422.612" y="42.929 42.929">as</tspan>ks</text></g><text x="180.036" y="368.565" fill="#535353" font-family="'OpenSans-Regular', 'Open Sans', sans-serif" font-size="12">V<tspan x="186.938 194.186" y="368.565 368.565">ot</tspan>ing App Ar<tspan x="256.184 261.897" y="368.565 368.565">ch</tspan>itectur<tspan x="305.239" y="368.565">e</tspan></text></g><g id="Stack"><path fill="#ccc" stroke="#30b5e5" stroke-width="1" d="M393.116,158.578c0,-3.434 -2.788,-6.222 -6.222,-6.222l-277.989,0c-3.434,0 -6.222,2.788 -6.222,6.222l0,141.892c0,3.434 2.788,6.222 6.222,6.222l277.989,0c3.434,0 6.222,-2.788 6.222,-6.222l0,-141.892Z"/><text x="110.483" y="166.216" fill="#535353" font-family="'OpenSans-Regular', 'Open Sans', sans-serif" font-size="12">voting_stack</text></g><g id="services---new"><g id="vote"><g id="vote-2"><path fill="#3d5e70" d="M265.57,176.348c3.164,0.848 5.044,4.105 4.196,7.268l-3.071,11.465c-0.122,0.455 -0.295,0.884 -0.509,1.283l0.025,0.006l-20.803,32.536l-1.861,-38.594l0.018,0.005c0.012,-0.457 0.078,-0.919 0.201,-1.38l3.072,-11.464c0.848,-3.164 4.104,-5.044 7.268,-4.197l11.464,3.072Z"/><path fill="#3d5e70" d="M236.594,173.317c3.164,-0.848 6.421,1.033 7.269,4.196l3.071,11.465c0.122,0.455 0.188,0.913 0.201,1.365l0.025,-0.007l-1.748,38.578l-20.908,-32.492l0.018,-0.005c-0.218,-0.402 -0.393,-0.835 -0.516,-1.296l-3.072,-11.464c-0.848,-3.164 1.032,-6.42 4.196,-7.268l11.464,-3.072Z"/><g><path fill="#fff" stroke="#c846ef" stroke-width="1" d="M263.591,182.355c0.182,-0.678 -0.221,-1.376 -0.899,-1.558l-8.338,-2.234c-0.678,-0.182 -1.376,0.221 -1.558,0.899l-2.234,8.338c-0.182,0.678 0.221,1.376 0.899,1.558l8.338,2.234c0.678,0.182 1.376,-0.221 1.558,-0.899l2.234,-8.338Z"/><g><path fill="none" stroke="#c846ef" stroke-width="1" d="M255.039,180.733l-1.772,6.615"/><path fill="none" stroke="#c846ef" stroke-width="1" d="M257.031,181.267l-1.773,6.615"/><path fill="none" stroke="#c846ef" stroke-width="1" d="M259.022,181.801l-1.773,6.614"/><path fill="none" stroke="#c846ef" stroke-width="1" d="M261.013,182.334l-1.773,6.615"/></g></g><g><path fill="#fff" stroke="#c846ef" stroke-width="1" d="M238.211,178.778c-0.182,-0.678 -0.88,-1.081 -1.558,-0.899l-8.338,2.234c-0.678,0.181 -1.081,0.879 -0.899,1.557l2.234,8.338c0.182,0.678 0.88,1.081 1.558,0.9l8.337,-2.234c0.678,-0.182 1.081,-0.88 0.9,-1.558l-2.234,-8.338Z"/><g><path fill="none" stroke="#c846ef" stroke-width="1" d="M229.994,181.65l1.772,6.614"/><path fill="none" stroke="#c846ef" stroke-width="1" d="M231.985,181.116l1.772,6.615"/><path fill="none" stroke="#c846ef" stroke-width="1" d="M233.976,180.583l1.773,6.614"/><path fill="none" stroke="#c846ef" stroke-width="1" d="M235.967,180.049l1.773,6.614"/></g></g></g><g><rect width="34.013" height="12" x="228.344" y="219.58" fill="#3d5e70"/><text x="233.309" y="229.345" fill="#fff" font-family="'Hack-Regular', 'Hack', monospace" font-size="10">vote</text></g></g><g id="db"><g><path fill="#3d5e70" d="M158.21,174.012c3.275,0 5.934,2.659 5.934,5.935l0,11.868c0,0.472 -0.055,0.931 -0.159,1.371l0.026,0l-11.673,36.811l-11.787,-36.796l0.019,0c-0.107,-0.445 -0.163,-0.909 -0.163,-1.386l0,-11.868c0,-3.276 2.659,-5.935 5.934,-5.935l11.869,0Z"/><g><path fill="#fff" stroke="#95d0ff" stroke-width="1" d="M158.358,179.705c0,-0.702 -0.57,-1.272 -1.272,-1.272l-8.632,0c-0.702,0 -1.272,0.57 -1.272,1.272l0,8.632c0,0.702 0.57,1.272 1.272,1.272l8.632,0c0.702,0 1.272,-0.57 1.272,-1.272l0,-8.632Z"/><g><path fill="none" stroke="#95d0ff" stroke-width="1" d="M149.678,180.353l0,6.847"/><path fill="none" stroke="#95d0ff" stroke-width="1" d="M151.739,180.353l0,6.847"/><path fill="none" stroke="#95d0ff" stroke-width="1" d="M153.801,180.353l0,6.847"/><path fill="none" stroke="#95d0ff" stroke-width="1" d="M155.862,180.353l0,6.847"/></g></g></g><g><rect width="34.013" height="12" x="135.309" y="219.58" fill="#3d5e70"/><text x="146.295" y="229.345" fill="#fff" font-family="'Hack-Regular', 'Hack', monospace" font-size="10">db</text></g></g><g id="visualizer"><g><path fill="#3d5e70" d="M345.851,240.372c3.276,0 5.935,2.659 5.935,5.935l0,11.868c0,0.472 -0.055,0.931 -0.16,1.371l0.026,0l-11.673,36.812l-11.787,-36.797l0.019,0c-0.106,-0.445 -0.163,-0.909 -0.163,-1.386l0,-11.868c0,-3.276 2.659,-5.935 5.935,-5.935l11.868,0Z"/><g><path fill="#fff" stroke="#55c4f3" stroke-width="1" d="M345.999,246.066c0,-0.702 -0.57,-1.272 -1.272,-1.272l-8.632,0c-0.702,0 -1.272,0.57 -1.272,1.272l0,8.631c0,0.702 0.57,1.272 1.272,1.272l8.632,0c0.702,0 1.272,-0.57 1.272,-1.272l0,-8.631Z"/><g><path fill="none" stroke="#55c4f3" stroke-width="1" d="M337.319,246.713l0,6.848"/><path fill="none" stroke="#55c4f3" stroke-width="1" d="M339.381,246.713l0,6.848"/><path fill="none" stroke="#55c4f3" stroke-width="1" d="M341.442,246.713l0,6.848"/><path fill="none" stroke="#55c4f3" stroke-width="1" d="M343.503,246.713l0,6.848"/></g></g></g><g><rect width="66.532" height="12" x="307.129" y="286.07" fill="#3d5e70"/><text x="310.292" y="295.83" fill="#fff" font-family="'Hack-Regular', 'Hack', monospace" font-size="10">visualizer</text></g></g><g id="redis"><g id="redis1"><path fill="#3d5e70" d="M251.285,239.978c3.275,0.001 5.934,2.66 5.934,5.935l0,11.869c0,0.471 -0.055,0.93 -0.16,1.37l0.026,0l-11.673,36.812l-11.786,-36.797l0.018,0c-0.106,-0.445 -0.163,-0.909 -0.163,-1.385l0,-11.869c0,-3.275 2.659,-5.934 5.935,-5.935l11.869,0Z"/><g><path fill="#fff" stroke="#fcf" stroke-width="1" d="M251.432,245.672c0,-0.702 -0.57,-1.272 -1.272,-1.272l-8.631,0c-0.703,0 -1.272,0.57 -1.272,1.272l0,8.632c0,0.702 0.569,1.271 1.272,1.271l8.631,0c0.702,0 1.272,-0.569 1.272,-1.271l0,-8.632Z"/><g><path fill="none" stroke="#fcf" stroke-width="1" d="M242.752,246.319l0,6.848"/><path fill="none" stroke="#fcf" stroke-width="1" d="M244.814,246.319l0,6.848"/><path fill="none" stroke="#fcf" stroke-width="1" d="M246.875,246.319l0,6.848"/><path fill="none" stroke="#fcf" stroke-width="1" d="M248.936,246.319l0,6.848"/></g></g></g><g><rect width="38.097" height="12" x="226.301" y="286.07" fill="#3d5e70"/><text x="230.299" y="295.436" fill="#fff" font-family="'Hack-Regular', 'Hack', monospace" font-size="10">redis</text></g></g><g id="worker"><g id="worker-svc"><path fill="#3d5e70" d="M158.25,239.978c3.275,0.001 5.934,2.66 5.934,5.935l0,11.869c0,0.471 -0.055,0.93 -0.159,1.37l0.025,0l-11.673,36.812l-11.786,-36.797l0.019,0c-0.107,-0.445 -0.163,-0.909 -0.163,-1.385l0,-11.869c0,-3.275 2.659,-5.934 5.934,-5.935l11.869,0Z"/><g><path fill="#fff" stroke="#60d26a" stroke-width="1" d="M158.397,245.672c0,-0.702 -0.569,-1.272 -1.271,-1.272l-8.632,0c-0.702,0 -1.272,0.57 -1.272,1.272l0,8.632c0,0.702 0.57,1.271 1.272,1.271l8.632,0c0.702,0 1.271,-0.569 1.271,-1.271l0,-8.632Z"/><g><path fill="none" stroke="#60d26a" stroke-width="1" d="M149.718,246.319l0,6.848"/><path fill="none" stroke="#60d26a" stroke-width="1" d="M151.779,246.319l0,6.848"/><path fill="none" stroke="#60d26a" stroke-width="1" d="M153.84,246.319l0,6.848"/><path fill="none" stroke="#60d26a" stroke-width="1" d="M155.902,246.319l0,6.848"/></g></g></g><g><rect width="41.394" height="12" x="131.273" y="286.07" fill="#3d5e70"/><text x="134.254" y="295.436" fill="#fff" font-family="'Hack-Regular', 'Hack', monospace" font-size="10">worker</text></g></g><g id="result"><g id="result1"><path fill="#3d5e70" d="M346.329,173.494c3.275,0 5.934,2.659 5.934,5.934l0,11.869c0,0.472 -0.055,0.931 -0.159,1.371l0.025,0l-11.673,36.811l-11.786,-36.797l0.019,0c-0.107,-0.444 -0.163,-0.908 -0.163,-1.385l0,-11.869c0,-3.275 2.659,-5.934 5.934,-5.934l11.869,0Z"/><g><path fill="#fff" stroke="#00e7ab" stroke-width="1" d="M346.477,179.187c0,-0.702 -0.57,-1.272 -1.272,-1.272l-8.632,0c-0.702,0 -1.272,0.57 -1.272,1.272l0,8.632c0,0.702 0.57,1.272 1.272,1.272l8.632,0c0.702,0 1.272,-0.57 1.272,-1.272l0,-8.632Z"/><g><path fill="none" stroke="#00e7ab" stroke-width="1" d="M337.797,179.834l0,6.848"/><path fill="none" stroke="#00e7ab" stroke-width="1" d="M339.858,179.834l0,6.848"/><path fill="none" stroke="#00e7ab" stroke-width="1" d="M341.919,179.834l0,6.848"/><path fill="none" stroke="#00e7ab" stroke-width="1" d="M343.981,179.834l0,6.848"/></g></g></g><g><rect width="41.393" height="12" x="319.603" y="219.58" fill="#3d5e70"/><text x="322.333" y="228.952" fill="#fff" font-family="'Hack-Regular', 'Hack', monospace" font-size="10">result</text></g></g></g><g id="Label---Stack"><path fill="none" stroke="#ef4a52" stroke-linecap="butt" stroke-width="1" d="M126.183,154.539l-21.143,-58.286l-98.553,0"/><g><text x="1484.29" y="283.023" fill="#535353" font-family="'OpenSans-Regular', 'Open Sans', sans-serif" font-size="8" transform="matrix(1,0,0,1,-1476.87,-177.171)">Gr<tspan x="1493.22 1498.06" y="283.023 283.023">ou</tspan>p of interr<tspan x="1540.18 1544.67" y="283.023 283.023">el</tspan>ated</text><text x="1484.29" y="291.023" fill="#535353" font-family="'OpenSans-Italic', 'Open Sans', sans-serif" font-size="8" font-style="italic" transform="matrix(1,0,0,1,-1476.87,-177.171)">services</text><text x="1513.61" y="291.023" fill="#535353" font-family="'OpenSans-Regular', 'Open Sans', sans-serif" font-size="8" transform="matrix(1,0,0,1,-1476.87,-177.171)">&amp; dependencies.</text><text x="1484.29" y="299.023" fill="#535353" font-family="'OpenSans-Regular', 'Open Sans', sans-serif" font-size="8" transform="matrix(1,0,0,1,-1476.87,-177.171)">Or<tspan x="1493.63 1497.44" y="299.023 299.023">ch</tspan>estr<tspan x="1516.58 1521.03" y="299.023 299.023">at</tspan>ed as a unit.</text><text x="1484.29" y="307.023" fill="#535353" font-family="'OpenSans-Regular', 'Open Sans', sans-serif" font-size="8" transform="matrix(1,0,0,1,-1476.87,-177.171)">Pr<tspan x="1492.21 1497.05" y="307.023 307.023">od</tspan>uction applications</text><text x="1484.29" y="315.023" fill="#535353" font-family="'OpenSans-Regular', 'Open Sans', sans-serif" font-size="8" transform="matrix(1,0,0,1,-1476.87,-177.171)">ar<tspan x="1491.85 1496.34" y="315.023 315.023">e </tspan>one stack, and</text><text x="1484.29" y="323.023" fill="#535353" font-family="'OpenSans-Regular', 'Open Sans', sans-serif" font-size="8" transform="matrix(1,0,0,1,-1476.87,-177.171)">sometime mor<tspan x="1539.11 1543.59" y="323.023 323.023">e.</tspan></text></g><text x="7.425" y="90.533" fill="#ef4a52" font-family="'OpenSans-Regular', 'Open Sans', sans-serif" font-size="12">Stack</text></g><g id="Label---Service"><path fill="none" stroke="#ef4a52" stroke-linecap="butt" stroke-width="1" d="M358.473,220.836l17.069,-57.641l109.123,0"/><g><text x="1071.64" y="267.957" fill="#ef4a52" font-family="'OpenSans-Regular', 'Open Sans', sans-serif" font-size="10" transform="matrix(1,0,0,1,-621.833,-106.743)">S</text><text x="1077.12" y="267.957" fill="#ef4a52" font-family="'OpenSans-Regular', 'Open Sans', sans-serif" font-size="10" transform="matrix(1,0,0,1,-621.833,-106.743)">e</text><text x="1082.74" y="267.957" fill="#ef4a52" font-family="'OpenSans-Regular', 'Open Sans', sans-serif" font-size="10" transform="matrix(1,0,0,1,-621.833,-106.743)">r</text><text x="1086.81" y="267.957" fill="#ef4a52" font-family="'OpenSans-Regular', 'Open Sans', sans-serif" font-size="10" transform="matrix(1,0,0,1,-621.833,-106.743)">v</text><text x="1091.82" y="267.957" fill="#ef4a52" font-family="'OpenSans-Regular', 'Open Sans', sans-serif" font-size="10" transform="matrix(1,0,0,1,-621.833,-106.743)">i</text><text x="1094.37" y="267.957" fill="#ef4a52" font-family="'OpenSans-Regular', 'Open Sans', sans-serif" font-size="10" transform="matrix(1,0,0,1,-621.833,-106.743)">c</text><text x="1099.11" y="267.957" fill="#ef4a52" font-family="'OpenSans-Regular', 'Open Sans', sans-serif" font-size="10" transform="matrix(1,0,0,1,-621.833,-106.743)">e</text></g><g><text x="1504.38" y="283.023" fill="#535353" font-family="'OpenSans-Regular', 'Open Sans', sans-serif" font-size="8" transform="matrix(1,0,0,1,-1094.09,-109.372)">A</text><text x="1511.52" y="283.023" fill="#535353" font-family="'OpenSans-Italic', 'Open Sans', sans-serif" font-size="8" font-style="italic" transform="matrix(1,0,0,1,-1094.09,-109.372)">stack</text><text x="1531.64" y="283.023" fill="#535353" font-family="'OpenSans-Regular', 'Open Sans', sans-serif" font-size="8" transform="matrix(1,0,0,1,-1094.09,-109.372)">component,</text><text x="1498.54" y="291.023" fill="#535353" font-family="'OpenSans-Regular', 'Open Sans', sans-serif" font-size="8" transform="matrix(1,0,0,1,-1094.09,-109.372)">including a container</text><text x="1510.18" y="299.023" fill="#535353" font-family="'OpenSans-Regular', 'Open Sans', sans-serif" font-size="8" transform="matrix(1,0,0,1,-1094.09,-109.372)">image, number of</text><text x="1496.37" y="307.023" fill="#535353" font-family="'OpenSans-Regular', 'Open Sans', sans-serif" font-size="8" transform="matrix(1,0,0,1,-1094.09,-109.372)">r<tspan x="1499.48 1503.96" y="307.023 307.023">ep</tspan>licas (tasks), ports,</text><text x="1508.22" y="315.023" fill="#535353" font-family="'OpenSans-Regular', 'Open Sans', sans-serif" font-size="8" transform="matrix(1,0,0,1,-1094.09,-109.372)">and update policy<tspan x="1574.42" y="315.023">.</tspan></text></g></g><g id="Label---Task"><g><path fill="none" stroke="#ef4a52" stroke-linecap="butt" stroke-width="1" d="M237.445,173.733l11.146,-16.692l19.118,-52.174l107.796,0.143"/><path fill="#ef4a52" stroke="#ef4a52" stroke-linecap="butt" stroke-width="1" d="M248.591,157.041l5.076,16.917"/></g><g><text x="1488.66" y="283.023" fill="#535353" font-family="'OpenSans-Regular', 'Open Sans', sans-serif" font-size="8" transform="matrix(1,0,0,1,-1199.71,-168.762)">Atomic unit of a</text><text x="1549.62" y="283.023" fill="#535353" font-family="'OpenSans-Italic', 'Open Sans', sans-serif" font-size="8" font-style="italic" transform="matrix(1,0,0,1,-1199.71,-168.762)">service</text><text x="1507.91" y="291.023" fill="#535353" font-family="'OpenSans-Regular', 'Open Sans', sans-serif" font-size="8" transform="matrix(1,0,0,1,-1199.71,-168.762)">and scheduling in</text><text x="1489.74" y="299.023" fill="#535353" font-family="'OpenSans-Regular', 'Open Sans', sans-serif" font-size="8" transform="matrix(1,0,0,1,-1199.71,-168.762)">Dock<tspan x="1508.25 1512.74" y="299.023 299.023">er</tspan>. One container</text><text x="1507.97" y="307.023" fill="#535353" font-family="'OpenSans-Regular', 'Open Sans', sans-serif" font-size="8" transform="matrix(1,0,0,1,-1199.71,-168.762)">instance per task.</text></g><text x="343.628" y="98.657" fill="#ef4a52" font-family="'OpenSans-Regular', 'Open Sans', sans-serif" font-size="12">T<tspan x="349.306 355.979" y="98.657 98.657">as</tspan>ks</text></g></svg>