<svg xmlns="http://www.w3.org/2000/svg" xmlns:xlink="http://www.w3.org/1999/xlink" width="100%" height="100%" fill-rule="evenodd" stroke-linejoin="bevel" stroke-miterlimit="10" clip-rule="evenodd" version="1.1" viewBox="0 0 370 250" xml:space="preserve"><rect id="images---layers" width="429.638" height="343.719" x="-29.055" y="-33.029" fill="none"/><g id="title-and-bounding-lines"><text x="97.199" y="36.801" fill="#008ec0" font-family="'OpenSans-Regular', 'Open Sans', sans-serif" font-size="24">L<tspan x="109.956 123.604 135.998 149.762 159.859 171.609 178.927 196.747 204.065 219.506 233.153 244.879 259.91" y="36.801 36.801 36.801 36.801 36.801 36.801 36.801 36.801 36.801 36.801 36.801 36.801 36.801">ayers &amp; Cache</tspan></text><path fill="none" stroke="#a7a7a7" stroke-width="1" d="M7.343,8.474l351.458,0"/><path fill="none" stroke="#a7a7a7" stroke-width="1" d="M6.343,241.474l351.458,0"/></g><g id="hello-v0.1-container"><path fill="none" stroke="#0095e5" stroke-linejoin="round" stroke-miterlimit="1.5" stroke-width="1" d="M92.367,92.367c0,-1.51 -1.227,-2.736 -2.737,-2.736l-63.937,0c-1.51,0 -2.736,1.226 -2.736,2.736l0,127.656c0,1.51 1.226,2.736 2.736,2.736l63.937,0c1.51,0 2.737,-1.226 2.737,-2.736l0,-127.656Z"/><g><path fill="#fff" fill-rule="nonzero" stroke="#0095e5" stroke-linejoin="miter" stroke-miterlimit="8" stroke-width="1" d="M30.567,75.795l17.18,0c1.096,0 1.827,0.747 1.827,1.868l0,17.935c0,1.121 -0.731,1.868 -1.827,1.868l-17.18,0c-1.097,0 -2.193,-0.747 -2.193,-1.868l0,-17.935c0,-1.121 1.096,-1.868 2.193,-1.868Z"/><g><path fill="none" stroke="#0095e5" stroke-linecap="round" stroke-linejoin="round" stroke-width="1" d="M34.082,91.734l0,-10.938"/><path fill="none" stroke="#0095e5" stroke-linecap="round" stroke-linejoin="round" stroke-width="1" d="M37.343,91.734l0,-10.938"/><path fill="none" stroke="#0095e5" stroke-linecap="round" stroke-linejoin="round" stroke-width="1" d="M40.605,91.734l0,-10.938"/><path fill="none" stroke="#0095e5" stroke-linecap="round" stroke-linejoin="round" stroke-width="1" d="M43.866,91.734l0,-10.938"/></g></g><text x="38.201" y="63.782" fill="#0095e5" font-family="'OpenSans-Regular', 'Open Sans', sans-serif" font-size="9">hello:v0.1</text><g id="layer---alpine"><path fill="#00b050" d="M87.338,195.441c0,-1.488 -1.208,-2.697 -2.696,-2.697l-53.96,0c-1.489,0 -2.697,1.209 -2.697,2.697l0,12.732c0,1.488 1.208,2.696 2.697,2.696l53.96,0c1.488,0 2.696,-1.208 2.696,-2.696l0,-12.732Z"/><text x="40.564" y="206.366" fill="#fff" font-family="'OpenSans-Regular', 'Open Sans', sans-serif" font-size="12">alpine</text></g><g id="layer---nodejs"><path fill="#69c" d="M87.338,173.388c0,-1.488 -1.208,-2.697 -2.696,-2.697l-53.96,0c-1.489,0 -2.697,1.209 -2.697,2.697l0,12.732c0,1.488 1.208,2.696 2.697,2.696l53.96,0c1.488,0 2.696,-1.208 2.696,-2.696l0,-12.732Z"/><text x="38.932" y="184.312" fill="#fff" font-family="'OpenSans-Regular', 'Open Sans', sans-serif" font-size="12">nodejs</text></g><g id="layer---nodejs-v0.1"><path fill="#fff" fill-rule="nonzero" stroke="#ccc" stroke-linejoin="round" stroke-miterlimit="1.414" stroke-width="1" d="M27.985,109.669l59.353,0l0,48.085l-5.647,8.791l-53.706,0l0,-56.876Z"/><path fill="#ccc" fill-rule="nonzero" d="M81.717,166.545l-0.087,-8.83l5.708,0.039l-5.621,8.791Z"/><g><text x="1141.34" y="1963.65" fill="gray" font-family="'Hack-Regular', 'Hack', monospace" font-size="5" transform="matrix(1,0,0,1,-1110.62,-1846.02)">va<tspan x="1147.16 1150.07 1152.98 1155.89 1158.8" y="1963.65 1963.65 1963.65 1963.65 1963.65">r os </tspan>=</text><text x="1147.34" y="1968.65" fill="gray" font-family="'Hack-Regular', 'Hack', monospace" font-size="5" transform="matrix(1,0,0,1,-1110.62,-1846.02)">re<tspan x="1153.16 1156.07 1158.98 1161.89 1164.8 1167.71 1170.62 1173.53 1176.44 1179.35 1182.26" y="1968.65 1968.65 1968.65 1968.65 1968.65 1968.65 1968.65 1968.65 1968.65 1968.65 1968.65">quire(&quot;os&quot;)</tspan>;</text><text x="1141.34" y="1977.65" fill="gray" font-family="'Hack-Regular', 'Hack', monospace" font-size="5" transform="matrix(1,0,0,1,-1110.62,-1846.02)">va<tspan x="1147.16 1150.07 1152.98 1155.89 1158.8 1161.71 1164.62 1167.53 1170.44 1173.35 1176.26" y="1977.65 1977.65 1977.65 1977.65 1977.65 1977.65 1977.65 1977.65 1977.65 1977.65 1977.65">r hostname </tspan>=</text><text x="1147.34" y="1982.65" fill="gray" font-family="'Hack-Regular', 'Hack', monospace" font-size="5" transform="matrix(1,0,0,1,-1110.62,-1846.02)">os<tspan x="1153.16 1156.07 1158.98 1161.89 1164.8 1167.71 1170.62 1173.53 1176.44 1179.35 1182.26" y="1982.65 1982.65 1982.65 1982.65 1982.65 1982.65 1982.65 1982.65 1982.65 1982.65 1982.65">.hostname()</tspan>;</text><text x="1141.34" y="1991.65" fill="gray" font-family="'Hack-Regular', 'Hack', monospace" font-size="5" transform="matrix(1,0,0,1,-1110.62,-1846.02)">co<tspan x="1147.16 1150.07 1152.98 1155.89 1158.8 1161.71 1164.62 1167.53 1170.44 1173.35 1176.26 1179.17 1182.08 1184.99 1187.9" y="1991.65 1991.65 1991.65 1991.65 1991.65 1991.65 1991.65 1991.65 1991.65 1991.65 1991.65 1991.65 1991.65 1991.65 1991.65">nsole.log(&quot;hell</tspan>o</text><text x="1147.34" y="1996.65" fill="gray" font-family="'Hack-Regular', 'Hack', monospace" font-size="5" transform="matrix(1,0,0,1,-1110.62,-1846.02)">fr<tspan x="1153.16 1156.07 1158.98 1161.89 1164.8" y="1996.65 1996.65 1996.65 1996.65 1996.65">om &quot; </tspan>+</text><text x="1147.34" y="2001.65" fill="gray" font-family="'Hack-Regular', 'Hack', monospace" font-size="5" transform="matrix(1,0,0,1,-1110.62,-1846.02)">ho<tspan x="1153.16 1156.07 1158.98 1161.89 1164.8 1167.71 1170.62" y="2001.65 2001.65 2001.65 2001.65 2001.65 2001.65 2001.65">stname)</tspan>;</text></g></g></g><g id="hello-v0.2-container"><path fill="none" stroke="#0095e5" stroke-linejoin="round" stroke-miterlimit="1.5" stroke-width="1" d="M348.571,92.367c0,-1.51 -1.227,-2.736 -2.737,-2.736l-63.937,0c-1.51,0 -2.736,1.226 -2.736,2.736l0,127.656c0,1.51 1.226,2.736 2.736,2.736l63.937,0c1.51,0 2.737,-1.226 2.737,-2.736l0,-127.656Z"/><g><path fill="#fff" fill-rule="nonzero" stroke="#0095e5" stroke-linejoin="miter" stroke-miterlimit="8" stroke-width="1" d="M286.771,75.795l17.18,0c1.096,0 1.827,0.747 1.827,1.868l0,17.935c0,1.121 -0.731,1.868 -1.827,1.868l-17.18,0c-1.097,0 -2.193,-0.747 -2.193,-1.868l0,-17.935c0,-1.121 1.096,-1.868 2.193,-1.868Z"/><g><path fill="none" stroke="#0095e5" stroke-linecap="round" stroke-linejoin="round" stroke-width="1" d="M290.286,91.734l0,-10.938"/><path fill="none" stroke="#0095e5" stroke-linecap="round" stroke-linejoin="round" stroke-width="1" d="M293.547,91.734l0,-10.938"/><path fill="none" stroke="#0095e5" stroke-linecap="round" stroke-linejoin="round" stroke-width="1" d="M296.809,91.734l0,-10.938"/><path fill="none" stroke="#0095e5" stroke-linecap="round" stroke-linejoin="round" stroke-width="1" d="M300.07,91.734l0,-10.938"/></g></g><text x="294.405" y="63.782" fill="#0095e5" font-family="'OpenSans-Regular', 'Open Sans', sans-serif" font-size="9">hello:v0.2</text><g id="layer---alpine1"><path fill="#00b050" d="M343.542,195.441c0,-1.488 -1.208,-2.697 -2.696,-2.697l-53.96,0c-1.489,0 -2.697,1.209 -2.697,2.697l0,12.732c0,1.488 1.208,2.696 2.697,2.696l53.96,0c1.488,0 2.696,-1.208 2.696,-2.696l0,-12.732Z"/><text x="296.768" y="206.366" fill="#fff" font-family="'OpenSans-Regular', 'Open Sans', sans-serif" font-size="12">alpine</text></g><g id="layer---nodejs1"><path fill="#69c" d="M343.542,173.388c0,-1.488 -1.208,-2.697 -2.696,-2.697l-53.96,0c-1.489,0 -2.697,1.209 -2.697,2.697l0,12.732c0,1.488 1.208,2.696 2.697,2.696l53.96,0c1.488,0 2.696,-1.208 2.696,-2.696l0,-12.732Z"/><text x="295.136" y="184.312" fill="#fff" font-family="'OpenSans-Regular', 'Open Sans', sans-serif" font-size="12">nodejs</text></g><g id="layer---nodejs-v0.11"><path fill="#fff" fill-rule="nonzero" stroke="#ccc" stroke-linejoin="round" stroke-miterlimit="1.414" stroke-width="1" d="M284.189,100.303l59.353,0l0,56.003l-5.647,10.239l-53.706,0l0,-66.242Z"/><path fill="#ccc" fill-rule="nonzero" d="M337.921,166.545l-0.087,-10.284l5.708,0.045l-5.621,10.239Z"/><g><text x="1141.34" y="1963.65" fill="gray" font-family="'Hack-Regular', 'Hack', monospace" font-size="5" transform="matrix(1,0,0,1,-854.414,-1855.38)">va<tspan x="1147.16 1150.07 1152.98 1155.89 1158.8" y="1963.65 1963.65 1963.65 1963.65 1963.65">r os </tspan>=</text><text x="1147.34" y="1968.65" fill="gray" font-family="'Hack-Regular', 'Hack', monospace" font-size="5" transform="matrix(1,0,0,1,-854.414,-1855.38)">re<tspan x="1153.16 1156.07 1158.98 1161.89 1164.8 1167.71 1170.62 1173.53 1176.44 1179.35 1182.26" y="1968.65 1968.65 1968.65 1968.65 1968.65 1968.65 1968.65 1968.65 1968.65 1968.65 1968.65">quire(&quot;os&quot;)</tspan>;</text><text x="1141.34" y="1977.65" fill="gray" font-family="'Hack-Regular', 'Hack', monospace" font-size="5" transform="matrix(1,0,0,1,-854.414,-1855.38)">va<tspan x="1147.16 1150.07 1152.98 1155.89 1158.8 1161.71 1164.62 1167.53 1170.44 1173.35 1176.26" y="1977.65 1977.65 1977.65 1977.65 1977.65 1977.65 1977.65 1977.65 1977.65 1977.65 1977.65">r hostname </tspan>=</text><text x="1147.34" y="1982.65" fill="gray" font-family="'Hack-Regular', 'Hack', monospace" font-size="5" transform="matrix(1,0,0,1,-854.414,-1855.38)">os<tspan x="1153.16 1156.07 1158.98 1161.89 1164.8 1167.71 1170.62 1173.53 1176.44 1179.35 1182.26" y="1982.65 1982.65 1982.65 1982.65 1982.65 1982.65 1982.65 1982.65 1982.65 1982.65 1982.65">.hostname()</tspan>;</text><text x="1141.34" y="1991.65" fill="gray" font-family="'Hack-Regular', 'Hack', monospace" font-size="5" transform="matrix(1,0,0,1,-854.414,-1855.38)">co<tspan x="1147.16 1150.07 1152.98 1155.89 1158.8 1161.71 1164.62 1167.53 1170.44 1173.35 1176.26 1179.17 1182.08 1184.99 1187.9" y="1991.65 1991.65 1991.65 1991.65 1991.65 1991.65 1991.65 1991.65 1991.65 1991.65 1991.65 1991.65 1991.65 1991.65 1991.65">nsole.log(&quot;hell</tspan>o</text><text x="1147.34" y="1996.65" fill="gray" font-family="'Hack-Regular', 'Hack', monospace" font-size="5" transform="matrix(1,0,0,1,-854.414,-1855.38)">fr<tspan x="1153.16 1156.07 1158.98 1161.89 1164.8" y="1996.65 1996.65 1996.65 1996.65 1996.65">om &quot; </tspan>+</text><text x="1147.34" y="2001.65" fill="gray" font-family="'Hack-Regular', 'Hack', monospace" font-size="5" transform="matrix(1,0,0,1,-854.414,-1855.38)">ho<tspan x="1153.16 1156.07 1158.98 1161.89 1164.8 1167.71 1170.62" y="2001.65 2001.65 2001.65 2001.65 2001.65 2001.65 2001.65">stname)</tspan>;</text><text x="1141.34" y="2010.65" fill="#ef4a52" font-family="'Hack-Regular', 'Hack', monospace" font-size="5" transform="matrix(1,0,0,1,-854.414,-1855.38)">co<tspan x="1147.16 1150.07 1152.98 1155.89 1158.8 1161.71 1164.62 1167.53 1170.44 1173.35 1176.26 1179.17 1182.08 1184.99 1187.9" y="2010.65 2010.65 2010.65 2010.65 2010.65 2010.65 2010.65 2010.65 2010.65 2010.65 2010.65 2010.65 2010.65 2010.65 2010.65">nsole.log(\&quot;thi</tspan>s</text><text x="1147.34" y="2015.65" fill="#ef4a52" font-family="'Hack-Regular', 'Hack', monospace" font-size="5" transform="matrix(1,0,0,1,-854.414,-1855.38)">is<tspan x="1153.16 1156.07 1158.98 1161.89 1164.8 1167.71 1170.62" y="2015.65 2015.65 2015.65 2015.65 2015.65 2015.65 2015.65"> v0.2\&quot;</tspan>)</text></g></g></g><g id="layer---nodejs-v0.12"><path fill="#fff" fill-rule="nonzero" stroke="#ccc" stroke-linejoin="round" stroke-miterlimit="1.414" stroke-width="1" d="M156.087,100.303l59.353,0l0,56.003l-5.647,10.239l-53.706,0l0,-66.242Z"/><path fill="#ccc" fill-rule="nonzero" d="M209.819,166.545l-0.087,-10.284l5.708,0.045l-5.621,10.239Z"/><g><text x="1141.34" y="1963.65" fill="gray" font-family="'Hack-Regular', 'Hack', monospace" font-size="5" transform="matrix(1,0,0,1,-982.516,-1855.38)">va<tspan x="1147.16 1150.07 1152.98 1155.89 1158.8" y="1963.65 1963.65 1963.65 1963.65 1963.65">r os </tspan>=</text><text x="1147.34" y="1968.65" fill="gray" font-family="'Hack-Regular', 'Hack', monospace" font-size="5" transform="matrix(1,0,0,1,-982.516,-1855.38)">re<tspan x="1153.16 1156.07 1158.98 1161.89 1164.8 1167.71 1170.62 1173.53 1176.44 1179.35 1182.26" y="1968.65 1968.65 1968.65 1968.65 1968.65 1968.65 1968.65 1968.65 1968.65 1968.65 1968.65">quire(&quot;os&quot;)</tspan>;</text><text x="1141.34" y="1977.65" fill="gray" font-family="'Hack-Regular', 'Hack', monospace" font-size="5" transform="matrix(1,0,0,1,-982.516,-1855.38)">va<tspan x="1147.16 1150.07 1152.98 1155.89 1158.8 1161.71 1164.62 1167.53 1170.44 1173.35 1176.26" y="1977.65 1977.65 1977.65 1977.65 1977.65 1977.65 1977.65 1977.65 1977.65 1977.65 1977.65">r hostname </tspan>=</text><text x="1147.34" y="1982.65" fill="gray" font-family="'Hack-Regular', 'Hack', monospace" font-size="5" transform="matrix(1,0,0,1,-982.516,-1855.38)">os<tspan x="1153.16 1156.07 1158.98 1161.89 1164.8 1167.71 1170.62 1173.53 1176.44 1179.35 1182.26" y="1982.65 1982.65 1982.65 1982.65 1982.65 1982.65 1982.65 1982.65 1982.65 1982.65 1982.65">.hostname()</tspan>;</text><text x="1141.34" y="1991.65" fill="gray" font-family="'Hack-Regular', 'Hack', monospace" font-size="5" transform="matrix(1,0,0,1,-982.516,-1855.38)">co<tspan x="1147.16 1150.07 1152.98 1155.89 1158.8 1161.71 1164.62 1167.53 1170.44 1173.35 1176.26 1179.17 1182.08 1184.99 1187.9" y="1991.65 1991.65 1991.65 1991.65 1991.65 1991.65 1991.65 1991.65 1991.65 1991.65 1991.65 1991.65 1991.65 1991.65 1991.65">nsole.log(&quot;hell</tspan>o</text><text x="1147.34" y="1996.65" fill="gray" font-family="'Hack-Regular', 'Hack', monospace" font-size="5" transform="matrix(1,0,0,1,-982.516,-1855.38)">fr<tspan x="1153.16 1156.07 1158.98 1161.89 1164.8" y="1996.65 1996.65 1996.65 1996.65 1996.65">om &quot; </tspan>+</text><text x="1147.34" y="2001.65" fill="gray" font-family="'Hack-Regular', 'Hack', monospace" font-size="5" transform="matrix(1,0,0,1,-982.516,-1855.38)">ho<tspan x="1153.16 1156.07 1158.98 1161.89 1164.8 1167.71 1170.62" y="2001.65 2001.65 2001.65 2001.65 2001.65 2001.65 2001.65">stname)</tspan>;</text><text x="1141.34" y="2010.65" fill="#ef4a52" font-family="'Hack-Regular', 'Hack', monospace" font-size="5" transform="matrix(1,0,0,1,-982.516,-1855.38)">co<tspan x="1147.16 1150.07 1152.98 1155.89 1158.8 1161.71 1164.62 1167.53 1170.44 1173.35 1176.26 1179.17 1182.08 1184.99 1187.9" y="2010.65 2010.65 2010.65 2010.65 2010.65 2010.65 2010.65 2010.65 2010.65 2010.65 2010.65 2010.65 2010.65 2010.65 2010.65">nsole.log(\&quot;thi</tspan>s</text><text x="1147.34" y="2015.65" fill="#ef4a52" font-family="'Hack-Regular', 'Hack', monospace" font-size="5" transform="matrix(1,0,0,1,-982.516,-1855.38)">is<tspan x="1153.16 1156.07 1158.98 1161.89 1164.8 1167.71 1170.62" y="2015.65 2015.65 2015.65 2015.65 2015.65 2015.65 2015.65"> v0.2\&quot;</tspan>)</text></g></g><g><g id="arrow"><path fill="#ef4a52" d="M183.801,177.922l-2.076,-3.746l4.133,0.031l-2.057,3.715Z"/><path fill="none" stroke="#ef4a52" stroke-linejoin="round" stroke-miterlimit="1.5" stroke-width="1" d="M183.791,167.317l0,7.744"/></g><g id="x"><path fill="#ef4a52" d="M188.028,183.196l0.532,-0.865l-9.005,-4.88l-0.532,0.866l9.005,4.879Z"/><path fill="#ef4a52" d="M179.023,182.331l0.532,0.865l9.005,-4.879l-0.532,-0.866l-9.005,4.88Z"/></g></g><g id="arrow1"><path fill="#06d7bf" d="M284.259,133.428l-3.991,2.076l0.033,-4.134l3.958,2.058Z"/><path fill="none" stroke="#06d7bf" stroke-linejoin="round" stroke-miterlimit="1.5" stroke-width="1" d="M218.389,133.437l62.454,0"/></g><path fill="#06d7bf" d="M105.511,197.23c-2.371,4.107 -6.752,6.637 -11.494,6.637c3.919,-2.057 7.101,-7.297 7.101,-13.273c0,-5.977 -3.182,-11.216 -7.101,-13.273c4.742,0 9.123,2.53 11.494,6.636l158.727,0l0,-6.636l13.273,13.273l-13.273,13.273l0,-6.637l-158.727,0Z"/><text x="168.698" y="194.393" fill="#fff" font-family="'OpenSans-Bold', 'Open Sans', sans-serif" font-size="10" font-weight="700">c<tspan x="173.639 179.479 184.421 190.793 196.502" y="194.393 194.393 194.393 194.393 194.393">ached</tspan></text></svg>