<svg xmlns="http://www.w3.org/2000/svg" xmlns:xlink="http://www.w3.org/1999/xlink" width="100%" height="100%" fill-rule="evenodd" stroke-linejoin="bevel" stroke-miterlimit="10" clip-rule="evenodd" version="1.1" viewBox="0 0 382 329" xml:space="preserve"><rect id="images---layers" width="429.638" height="343.719" x="-24.055" y="-12.254" fill="none"/><g id="title-and-bounding-lines"><text x="126.945" y="35.576" fill="#008ec0" font-family="'OpenSans-Regular', 'Open Sans', sans-serif" font-size="24">D<tspan x="144.741 159.537 171.263 183.68 197.445 207.541 222.045 228.415 242.18" y="35.576 35.576 35.576 35.576 35.576 35.576 35.576 35.576 35.576">ockerﬁles</tspan></text><path fill="none" stroke="#a7a7a7" stroke-width="1" d="M12.343,7.249l351.458,0"/><path fill="none" stroke="#a7a7a7" stroke-width="1" d="M11.343,322.249l351.458,0"/></g><g id="alpine-container-2"><g><path fill="#fff" stroke="#535353" stroke-linejoin="miter" stroke-miterlimit="8" stroke-width="1" d="M16.732,166.068l36.914,0c2.356,0 3.927,1.592 3.927,3.981l0,38.217c0,2.389 -1.571,3.981 -3.927,3.981l-36.914,0c-2.357,0 -4.712,-1.592 -4.712,-3.981l0,-38.217c0,-2.389 2.355,-3.981 4.712,-3.981Z"/><g><path fill="#0095e5" fill-opacity=".196" stroke="#535353" stroke-linejoin="round" stroke-miterlimit="1.5" stroke-width="1" d="M44.919,200.927l0,-23.033l0,23.033Z"/><path fill="#0095e5" fill-opacity=".196" stroke="#535353" stroke-linejoin="round" stroke-miterlimit="1.5" stroke-width="1" d="M38.171,200.927l0,-23.033l0,23.033Z"/><path fill="#0095e5" fill-opacity=".196" stroke="#535353" stroke-linejoin="round" stroke-miterlimit="1.5" stroke-width="1" d="M31.422,200.927l0,-23.033l0,23.033Z"/><path fill="#0095e5" fill-opacity=".196" stroke="#535353" stroke-linejoin="round" stroke-miterlimit="1.5" stroke-width="1" d="M24.673,200.803l0,-23.033l0,23.033Z"/></g></g><g><text x="332.548" y="167.257" fill="#535353" font-family="'OpenSans-Bold', 'Open Sans', sans-serif" font-size="10" font-weight="700" transform="matrix(1,0,0,1.01374,-313.198,53.9154)">al</text><text x="341.64" y="167.257" fill="#535353" font-family="'OpenSans-Bold', 'Open Sans', sans-serif" font-size="10" font-weight="700" transform="matrix(1,0,0,1.01374,-313.198,53.9154)">p</text><text x="347.568" y="167.257" fill="#535353" font-family="'OpenSans-Bold', 'Open Sans', sans-serif" font-size="10" font-weight="700" transform="matrix(1,0,0,1.01374,-313.198,53.9154)">i</text><text x="350.619" y="167.257" fill="#535353" font-family="'OpenSans-Bold', 'Open Sans', sans-serif" font-size="10" font-weight="700" transform="matrix(1,0,0,1.01374,-313.198,53.9154)">n</text><text x="357.542" y="167.257" fill="#535353" font-family="'OpenSans-Bold', 'Open Sans', sans-serif" font-size="10" font-weight="700" transform="matrix(1,0,0,1.01374,-313.198,53.9154)">e</text></g></g><g id="apk-commands"><rect width="84.832" height="49.826" x="77.258" y="166.068"/><g><text x="1230.61" y="1539.14" fill="#fff" font-family="'Hack-Regular', 'Hack', monospace" font-size="7" transform="matrix(1,0,0,1,-1144.86,-1351.5)">apk update</text><text x="1230.61" y="1551.14" fill="#fff" font-family="'Hack-Regular', 'Hack', monospace" font-size="7" transform="matrix(1,0,0,1,-1144.86,-1351.5)">apk add nodejs</text></g></g><g id="index.js-command"><rect width="84.832" height="49.826" x="181.775" y="166.068"/><g><text x="1230.61" y="1539.14" fill="#fff" font-family="'Hack-Regular', 'Hack', monospace" font-size="7" transform="matrix(1,0,0,1,-1044.7,-1351.5)">host/index.js --&gt;</text><text x="1243.26" y="1551.14" fill="#fff" font-family="'Hack-Regular', 'Hack', monospace" font-size="7" transform="matrix(1,0,0,1,-1044.7,-1351.5)">container/app</text></g></g><g id="node-command"><rect width="84.832" height="49.826" x="286.292" y="166.068"/><g><text x="1230.61" y="1539.14" fill="#fff" font-family="'Hack-Regular', 'Hack', monospace" font-size="7" transform="matrix(1,0,0,1,-940.186,-1351.5)">$ cd /app</text><text x="1230.61" y="1551.14" fill="#fff" font-family="'Hack-Regular', 'Hack', monospace" font-size="7" transform="matrix(1,0,0,1,-940.186,-1351.5)">$ node index.js</text></g></g><g id="dockerfile"><g id="paper"><path fill="#e5e5e5" fill-rule="nonzero" d="M111.984,54.811l146.719,0l0,61.475l-24.453,11.24l-122.266,0l0,-72.715Z"/><path fill="#a7a7a7" fill-rule="nonzero" d="M234.25,127.526l4.89,-8.992l19.563,-2.248l-24.453,11.24Z"/><g><text x="1230.61" y="1538.83" font-family="'Hack-Regular', 'Hack', monospace" font-size="7" transform="matrix(1,0,0,1,-1112.24,-1470.62)">FROM alpine</text><text x="1230.61" y="1548.83" font-family="'Hack-Regular', 'Hack', monospace" font-size="7" transform="matrix(1,0,0,1,-1112.24,-1470.62)">RUN apk update &amp;&amp; apk add nodejs</text><text x="1230.61" y="1558.83" font-family="'Hack-Regular', 'Hack', monospace" font-size="7" transform="matrix(1,0,0,1,-1112.24,-1470.62)">COPY . /app</text><text x="1230.61" y="1568.83" font-family="'Hack-Regular', 'Hack', monospace" font-size="7" transform="matrix(1,0,0,1,-1112.24,-1470.62)">WORKDIR /app</text><text x="1230.61" y="1578.83" font-family="'Hack-Regular', 'Hack', monospace" font-size="7" transform="matrix(1,0,0,1,-1112.24,-1470.62)">CMD [&quot;node&quot;,&quot;index.js&quot;]</text></g></g><text x="52.042" y="66.64" fill="#0095e5" font-family="'OpenSans-Bold', 'Open Sans', sans-serif" font-size="10" font-weight="700">Dock<tspan x="76.778 82.687" y="66.64 66.64">er</tspan>ﬁle:</text></g><g><text x="1076.09" y="1943.17" fill="#0095e5" font-family="'OpenSans-Bold', 'Open Sans', sans-serif" font-size="9" font-weight="700" transform="matrix(1,0,0,1,-1068.55,-1786.34)">FROM</text><text x="1104.96" y="1943.17" fill="#535353" font-family="'OpenSans-Regular', 'Open Sans', sans-serif" font-size="9" transform="matrix(1,0,0,1,-1068.55,-1786.34)">alpine</text></g><g><text x="1084.53" y="1943.17" fill="#0095e5" font-family="'OpenSans-Bold', 'Open Sans', sans-serif" font-size="9" font-weight="700" transform="matrix(1,0,0,1,-983.675,-1786.34)">RUN</text><text x="1106.93" y="1943.17" fill="#535353" font-family="'OpenSans-Regular', 'Open Sans', sans-serif" font-size="9" transform="matrix(1,0,0,1,-983.675,-1786.34)">apk</text></g><g><text x="1078.15" y="1943.17" fill="#0095e5" font-family="'OpenSans-Bold', 'Open Sans', sans-serif" font-size="9" font-weight="700" transform="matrix(1,0,0,1,-879.158,-1786.34)">C<tspan x="1083.7 1090.87" y="1943.17 1943.17">OP</tspan>Y</text><text x="1104.47" y="1943.17" fill="#535353" font-family="'OpenSans-Regular', 'Open Sans', sans-serif" font-size="9" transform="matrix(1,0,0,1,-879.158,-1786.34)">. /app</text></g><g><text x="1088.89" y="1937.67" fill="#0095e5" font-family="'OpenSans-Bold', 'Open Sans', sans-serif" font-size="9" font-weight="700" transform="matrix(1,0,0,1,-792.663,-1791.84)">WORKDIR</text><text x="1134.51" y="1937.67" fill="#535353" font-family="'OpenSans-Regular', 'Open Sans', sans-serif" font-size="9" transform="matrix(1,0,0,1,-792.663,-1791.84)">/app</text><text x="1074.86" y="1948.67" fill="#0095e5" font-family="'OpenSans-Bold', 'Open Sans', sans-serif" font-size="9" font-weight="700" transform="matrix(1,0,0,1,-792.663,-1791.84)">CMD</text><text x="1098.08" y="1948.67" fill="#535353" font-family="'OpenSans-Regular', 'Open Sans', sans-serif" font-size="9" transform="matrix(1,0,0,1,-792.663,-1791.84)">&quot;<tspan x="1101.42 1106.94" y="1948.67 1948.67">no</tspan>de&quot; &quot;inde<tspan x="1150.6 1155.31" y="1948.67 1948.67">x.</tspan>js&quot;</text></g><g id="math-symbols"><text x="60.935" y="198.578" fill="#0095e5" font-family="'OpenSans-Bold', 'Open Sans', sans-serif" font-size="20" font-weight="700">+</text><text x="166.225" y="198.578" fill="#0095e5" font-family="'OpenSans-Bold', 'Open Sans', sans-serif" font-size="20" font-weight="700">+</text><text x="270.742" y="198.578" fill="#0095e5" font-family="'OpenSans-Bold', 'Open Sans', sans-serif" font-size="20" font-weight="700">+</text><text x="142.246" y="290.997" fill="#0095e5" font-family="'OpenSans-Bold', 'Open Sans', sans-serif" font-size="20" font-weight="700">=</text></g><g id="ourfiglet-container"><g><path fill="none" stroke="#0095e5" stroke-linejoin="miter" stroke-miterlimit="8" stroke-width="1" d="M172.919,262.846l36.465,0c2.328,0 3.88,1.586 3.88,3.965l0,38.069c0,2.38 -1.552,3.966 -3.88,3.966l-36.465,0c-2.328,0 -4.655,-1.586 -4.655,-3.966l0,-38.069c0,-2.379 2.327,-3.965 4.655,-3.965Z"/><g><path fill="none" stroke="#0095e5" stroke-linecap="round" stroke-linejoin="round" stroke-width="1" d="M180.379,296.679l0,-23.218"/><path fill="none" stroke="#0095e5" stroke-linecap="round" stroke-linejoin="round" stroke-width="1" d="M187.302,296.679l0,-23.218"/><path fill="none" stroke="#0095e5" stroke-linecap="round" stroke-linejoin="round" stroke-width="1" d="M194.225,296.679l0,-23.218"/><path fill="none" stroke="#0095e5" stroke-linecap="round" stroke-linejoin="round" stroke-width="1" d="M201.148,296.679l0,-23.218"/></g></g><text x="171.303" y="255.798" fill="#0095e5" font-family="'OpenSans-Regular', 'Open Sans', sans-serif" font-size="9">hello:v0.1</text></g></svg>